<svg width="48" height="18" viewBox="0 0 48 18" fill="none" xmlns="http://www.w3.org/2000/svg">
<path d="M47.6938 0.652161L12.7999 15.5113C9.90596 16.7356 7.47582 17.3478 5.50944 17.3478C3.28336 17.3478 1.66944 16.5687 0.667703 15.0104C0.0369788 14.0087 -0.148528 12.738 0.111182 11.1982C0.370892 9.65854 1.05727 8.0168 2.17031 6.27303C3.09785 4.86318 4.61901 3.0081 6.73379 0.707813C5.99176 1.89506 5.47234 3.11941 5.17553 4.38086C4.61901 6.75535 5.11988 8.49912 6.67814 9.61216C7.42017 10.1316 8.44046 10.3913 9.73901 10.3913C10.7778 10.3913 11.9465 10.2243 13.2451 9.89042L47.6938 0.652161Z" fill="black"/>
</svg>
