<svg width="20" height="20" viewBox="0 0 20 20" fill="none" xmlns="http://www.w3.org/2000/svg">
<g clip-path="url(#clip0_12_73)">
<g filter="url(#filter0_d_12_73)">
<path d="M14.1667 2.91671C14.1667 2.8062 14.1228 2.70022 14.0446 2.62208C13.9665 2.54394 13.8605 2.50004 13.75 2.50004H11.6667C10.6176 2.44779 9.5905 2.81287 8.80977 3.51553C8.02904 4.21818 7.55815 5.20129 7.5 6.25004V8.50004H5.41667C5.30616 8.50004 5.20018 8.54394 5.12204 8.62208C5.0439 8.70022 5 8.8062 5 8.91671V11.0834C5 11.1939 5.0439 11.2999 5.12204 11.378C5.20018 11.4561 5.30616 11.5 5.41667 11.5H7.5V17.0834C7.5 17.1939 7.5439 17.2999 7.62204 17.378C7.70018 17.4561 7.80616 17.5 7.91667 17.5H10.4167C10.5272 17.5 10.6332 17.4561 10.7113 17.378C10.7894 17.2999 10.8333 17.1939 10.8333 17.0834V11.5H13.0167C13.1093 11.5014 13.1998 11.4718 13.2737 11.4159C13.3477 11.3601 13.4009 11.2812 13.425 11.1917L14.025 9.02504C14.0416 8.96348 14.0438 8.89893 14.0315 8.83637C14.0192 8.77381 13.9927 8.7149 13.9541 8.66419C13.9155 8.61347 13.8657 8.5723 13.8086 8.54384C13.7516 8.51539 13.6888 8.5004 13.625 8.50004H10.8333V6.25004C10.8541 6.04378 10.9509 5.85264 11.105 5.71396C11.2591 5.57527 11.4594 5.49901 11.6667 5.50004H13.75C13.8605 5.50004 13.9665 5.45615 14.0446 5.37801C14.1228 5.29987 14.1667 5.19388 14.1667 5.08338V2.91671Z" fill="white"/>
</g>
</g>
<defs>
<filter id="filter0_d_12_73" x="1" y="2.49512" width="17.1667" height="23.0049" filterUnits="userSpaceOnUse" color-interpolation-filters="sRGB">
<feFlood flood-opacity="0" result="BackgroundImageFix"/>
<feColorMatrix in="SourceAlpha" type="matrix" values="0 0 0 0 0 0 0 0 0 0 0 0 0 0 0 0 0 0 127 0" result="hardAlpha"/>
<feOffset dy="4"/>
<feGaussianBlur stdDeviation="2"/>
<feComposite in2="hardAlpha" operator="out"/>
<feColorMatrix type="matrix" values="0 0 0 0 0 0 0 0 0 0 0 0 0 0 0 0 0 0 0.25 0"/>
<feBlend mode="normal" in2="BackgroundImageFix" result="effect1_dropShadow_12_73"/>
<feBlend mode="normal" in="SourceGraphic" in2="effect1_dropShadow_12_73" result="shape"/>
</filter>
<clipPath id="clip0_12_73">
<rect width="20" height="20" fill="white"/>
</clipPath>
</defs>
</svg>
