<svg width="20" height="20" viewBox="0 0 20 20" fill="none" xmlns="http://www.w3.org/2000/svg">
<path d="M15.8334 3.33325H4.16675C3.50371 3.33325 2.86782 3.59664 2.39898 4.06549C1.93014 4.53433 1.66675 5.17021 1.66675 5.83325V14.1666C1.66675 14.8296 1.93014 15.4655 2.39898 15.9344C2.86782 16.4032 3.50371 16.6666 4.16675 16.6666H15.8334C16.4965 16.6666 17.1323 16.4032 17.6012 15.9344C18.07 15.4655 18.3334 14.8296 18.3334 14.1666V5.83325C18.3334 5.17021 18.07 4.53433 17.6012 4.06549C17.1323 3.59664 16.4965 3.33325 15.8334 3.33325ZM15.8334 4.99992L10.4167 8.72492C10.2901 8.79806 10.1464 8.83656 10.0001 8.83656C9.8538 8.83656 9.7101 8.79806 9.58341 8.72492L4.16675 4.99992H15.8334Z" fill="white"/>
</svg>
